<?xml version="1.0" encoding="UTF-8" standalone="no"?>
<!-- Created with Inkscape (http://www.inkscape.org/) -->

<svg
   version="1.1"
   id="svg1"
   width="1024"
   height="1024"
   viewBox="0 0 1024 1024"
   xmlns="http://www.w3.org/2000/svg"
   xmlns:svg="http://www.w3.org/2000/svg">
  <defs
     id="defs1" />
  <g
     id="g6"
     transform="translate(-115.05754,-102.50485)">
    <path
       style="display:inline;fill:#f73933;stroke-width:0.706826"
       d="m 337.97795,1029.6785 -1.79897,-787.62422 580.48196,1.36352 1.27515,783.8081 z"
       id="path7" />
    <path
       style="display:inline;fill:#2a2f35"
       d="m 299.5,1085.8543 c -16.85948,-1.8634 -37.13554,-8.1318 -54.51331,-16.8532 -30.08043,-15.0964 -57.98064,-42.9095 -72.90853,-72.68101 -11.54851,-23.03181 -15.80147,-39.79107 -16.95677,-66.82009 -1.26826,-29.6719 -0.4958,-637.44912 0.82154,-646.38718 3.57548,-24.25942 12.36714,-46.70168 26.87879,-68.61282 8.86282,-13.38198 30.04531,-34.69424 43.13608,-43.40035 18.05137,-12.00518 40.03826,-21.52239 60.76345,-26.30196 L 296.5,142.54255 622,142.24446 c 289.40726,-0.26503 326.68029,-0.12667 336.14437,1.24777 69.93933,10.15707 126.51083,64.74709 138.97733,134.10937 l 2.1385,11.8984 0.3208,317.5 c 0.1765,174.625 -0.058,322.46932 -0.522,328.54293 -5.9866,78.43817 -67.2814,141.32797 -146.59952,150.41427 -11.2542,1.2893 -641.26155,1.1899 -652.95948,-0.1029 z m 599.18598,-74.2302 c -0.29039,-0.7568 -7.89945,-11.2193 -16.90902,-23.25003 C 872.7674,976.34333 860.51254,959.75 854.54395,951.5 848.57535,943.25 842.63376,935.06424 841.34042,933.30943 821.6857,906.64191 768.39661,828.23017 729.27829,768.41664 684.78742,700.38827 677.93203,686.03475 683.97237,673.55708 688.89701,663.38413 705.60016,658.47304 744,655.90767 c 9.075,-0.60627 16.90843,-1.48944 17.40762,-1.96261 1.06474,-1.00923 1.70621,-0.14413 -14.18836,-19.13457 C 697.11194,574.94349 617.29768,493.19217 519.43693,401.5 485.33799,369.55046 426.97031,317.41361 411.38604,304.98368 409.67336,303.61766 400.85352,296.36226 391.78639,288.86059 373.82502,274.00027 357.02594,261 355.78466,261 355.3531,261 355,261.48514 355,262.07809 c 0,2.18195 41.72436,65.44284 87.99978,133.42191 32.0889,47.13894 90.73942,135.29292 101.12848,152 27.62991,44.43277 31.55907,55.9529 22.57408,66.18624 -7.26674,8.27636 -24.87189,12.195 -62.45234,13.90096 -12.46094,0.56566 -15.25,0.96203 -15.25,2.16724 0,1.49706 9.59687,12.70507 33.98919,39.69539 49.2668,54.51415 134.67451,140.65204 191.51081,193.1481 66.02106,60.97944 123.28301,108.66336 168.62949,140.42337 14.14206,9.9049 16.57176,11.2485 15.55649,8.6028 z"
       id="path6" />
  </g>
</svg>
